<svg width="15" height="15" viewBox="0 0 15 15" fill="none" xmlns="http://www.w3.org/2000/svg">
<path fill-rule="evenodd" clip-rule="evenodd" d="M14.2887 0.292893C13.8982 -0.0976312 13.2651 -0.097631 12.8745 0.292893L7.29082 5.87661L1.70711 0.292895C1.31658 -0.0976296 0.683417 -0.0976296 0.292893 0.292895C-0.0976312 0.683419 -0.097631 1.31658 0.292893 1.70711L5.8766 7.29082L0.292994 12.8744C-0.0975305 13.265 -0.0975305 13.8981 0.292994 14.2886C0.683518 14.6792 1.31668 14.6792 1.70721 14.2886L7.29082 8.70503L12.8744 14.2886C13.265 14.6792 13.8981 14.6792 14.2886 14.2886C14.6792 13.8981 14.6792 13.265 14.2886 12.8744L8.70503 7.29082L14.2887 1.70711C14.6793 1.31658 14.6793 0.683417 14.2887 0.292893Z" fill="#F3CD9E"/>
</svg>
