<svg width="663" height="366" viewBox="0 0 663 366" fill="none" xmlns="http://www.w3.org/2000/svg">
<g clip-path="url(#clip0_156_279)">
<path d="M341.16 364.127C330.679 365.668 320.071 366.179 309.49 365.655C283.975 364.368 258.882 356.962 237.438 343.037C227.93 336.863 218.86 329.277 213.939 319.087C207.259 305.248 209.595 287.729 219.134 275.676C222.613 271.328 226.893 267.684 231.743 264.94C232.461 264.535 233.196 264.145 233.938 263.77C242.019 259.715 251.096 258.056 260.093 258.991C275.389 260.66 289.506 269.984 297.662 283.012C304.927 294.629 307.458 308.335 308.951 322.073C309.232 324.661 309.474 327.257 309.708 329.838C308.408 337.314 306.364 344.643 303.607 351.715C303.467 352.059 303.352 352.414 303.263 352.775C304.826 356.159 306.312 359.574 307.724 363.02C309.05 363.738 310.535 364.113 312.044 364.111H341.098L341.16 364.127Z" fill="#F2F2F2"/>
<path d="M307.122 364.789C306.93 364.875 306.722 364.922 306.511 364.927C306.3 364.932 306.09 364.894 305.894 364.817C305.698 364.741 305.519 364.625 305.368 364.479C305.216 364.332 305.096 364.157 305.013 363.963C304.888 363.667 304.771 363.37 304.646 363.074C303.521 360.345 302.341 357.643 301.107 354.966C285.305 320.423 261.734 289.982 232.227 266.008C232.058 265.89 231.924 265.728 231.839 265.54C231.753 265.352 231.72 265.145 231.743 264.94C231.786 264.705 231.881 264.483 232.022 264.29C232.163 264.097 232.346 263.938 232.557 263.826C232.768 263.713 233.002 263.65 233.241 263.64C233.48 263.631 233.719 263.675 233.938 263.771C234.056 263.824 234.166 263.892 234.266 263.973C246.891 274.235 258.472 285.712 268.843 298.239C279.216 310.754 288.349 324.242 296.115 338.515C298.232 342.414 300.242 346.366 302.146 350.374C302.521 351.169 302.896 351.972 303.263 352.775C304.826 356.159 306.313 359.574 307.724 363.02C307.748 363.074 307.771 363.137 307.794 363.191C307.866 363.339 307.906 363.5 307.91 363.664C307.915 363.828 307.884 363.991 307.821 364.142C307.757 364.293 307.662 364.429 307.542 364.541C307.421 364.653 307.278 364.737 307.122 364.789Z" fill="white"/>
<path d="M203.509 261.962C220.336 261.962 233.977 248.348 233.977 231.555C233.977 214.763 220.336 201.149 203.509 201.149C186.683 201.149 173.042 214.763 173.042 231.555C173.042 248.348 186.683 261.962 203.509 261.962Z" fill="#EC8E97"/>
<path d="M200.489 243.155C199.804 243.156 199.137 242.935 198.588 242.524L198.554 242.499L191.394 237.028C191.062 236.774 190.784 236.458 190.574 236.097C190.365 235.736 190.229 235.338 190.174 234.924C190.119 234.511 190.147 234.091 190.254 233.688C190.362 233.285 190.548 232.907 190.803 232.576C191.057 232.245 191.374 231.967 191.736 231.759C192.097 231.55 192.497 231.414 192.911 231.36C193.325 231.305 193.746 231.333 194.15 231.44C194.554 231.548 194.932 231.734 195.264 231.988L199.901 235.537L210.861 221.273C211.115 220.942 211.432 220.664 211.794 220.456C212.156 220.247 212.555 220.112 212.969 220.057C213.383 220.002 213.804 220.03 214.208 220.138C214.611 220.245 214.989 220.431 215.321 220.685L215.253 220.777L215.323 220.686C215.991 221.199 216.429 221.956 216.539 222.79C216.65 223.625 216.424 224.469 215.912 225.137L203.02 241.916C202.722 242.302 202.339 242.615 201.9 242.83C201.461 243.045 200.978 243.156 200.489 243.155Z" fill="white"/>
<path d="M662.07 366H0.930179C0.683946 365.999 0.448047 365.901 0.274185 365.727C0.100324 365.553 0.00268555 365.317 0.00268555 365.072C0.00268555 364.826 0.100324 364.59 0.274185 364.416C0.448047 364.242 0.683946 364.144 0.930179 364.143H662.07C662.316 364.144 662.552 364.242 662.726 364.416C662.9 364.59 662.997 364.826 662.997 365.072C662.997 365.317 662.9 365.553 662.726 365.727C662.552 365.901 662.316 365.999 662.07 366Z" fill="#3F3D56" fill-opacity="0.7"/>
<path d="M129.327 105.989C141.814 105.989 151.936 95.8872 151.936 83.426C151.936 70.9649 141.814 60.8631 129.327 60.8631C116.841 60.8631 106.719 70.9649 106.719 83.426C106.719 95.8872 116.841 105.989 129.327 105.989Z" fill="#2F2E41"/>
<path d="M111.68 71.2607C115.334 67.6146 116.074 62.442 113.334 59.7075C110.594 56.9729 105.411 57.7118 101.758 61.3579C98.1041 65.004 97.3637 70.1766 100.104 72.9111C102.844 75.6457 108.027 74.9068 111.68 71.2607Z" fill="#2F2E41"/>
<path d="M152.891 64.0955C154.413 60.5391 151.796 56.0141 147.044 53.9885C142.293 51.963 137.207 53.204 135.685 56.7604C134.163 60.3167 136.78 64.8418 141.532 66.8673C146.283 68.8929 151.369 67.6519 152.891 64.0955Z" fill="#2F2E41"/>
<path d="M192.282 213.691C192.854 212.608 193.18 211.412 193.238 210.189C193.296 208.966 193.085 207.745 192.619 206.612C192.154 205.48 191.445 204.463 190.542 203.633C189.64 202.803 188.567 202.181 187.397 201.81L154.73 132.843L139.787 143.3L176.597 207.804C176.103 209.806 176.361 211.919 177.324 213.743C178.286 215.567 179.886 216.975 181.819 217.701C183.753 218.427 185.886 218.419 187.814 217.68C189.743 216.941 191.332 215.522 192.282 213.691V213.691Z" fill="#FFB8B8"/>
<path d="M162.221 144.349L144.872 152.092C144.378 152.312 143.843 152.423 143.302 152.418C142.761 152.414 142.228 152.293 141.738 152.063C141.249 151.834 140.814 151.503 140.465 151.091C140.115 150.679 139.859 150.197 139.712 149.677L134.596 131.47C133.481 128.943 133.416 126.078 134.414 123.503C135.413 120.928 137.394 118.853 139.923 117.734C142.451 116.614 145.322 116.541 147.905 117.53C150.488 118.519 152.573 120.49 153.702 123.011L163.858 138.902C164.149 139.357 164.338 139.869 164.413 140.404C164.487 140.938 164.445 141.483 164.29 142C164.134 142.516 163.869 142.994 163.512 143.399C163.155 143.805 162.715 144.129 162.221 144.349Z" fill="#EEB876"/>
<path d="M82.0938 220.529C83.2889 220.252 84.4087 219.717 85.3741 218.961C86.3396 218.206 87.1273 217.248 87.6818 216.156C88.2363 215.063 88.544 213.863 88.5834 212.639C88.6228 211.415 88.3928 210.198 87.9097 209.072L118.848 139.316L101.15 134.867L76.3036 204.834C74.4628 205.77 73.0297 207.347 72.276 209.266C71.5222 211.185 71.5 213.314 72.2138 215.248C72.9275 217.183 74.3275 218.789 76.1484 219.762C77.9694 220.735 80.0848 221.008 82.0939 220.529H82.0938Z" fill="#FFB8B8"/>
<path d="M73.6602 346.969L82.6598 350.239L99.5817 317.152L86.2987 312.326L73.6602 346.969Z" fill="#FFB8B8"/>
<path d="M96.9735 364.886L68.6891 354.608L72.668 343.702L90.0244 350.009C92.9227 351.062 95.283 353.221 96.5863 356.011C97.8895 358.801 98.0288 361.993 96.9735 364.886Z" fill="#2F2E41"/>
<path d="M94.9474 327.928C94.3952 327.929 93.8498 327.807 93.3506 327.571L83.0079 322.682C82.16 322.284 81.4918 321.585 81.1349 320.721C80.7779 319.856 80.7582 318.89 81.0794 318.012L110.269 237.343C110.51 236.675 110.937 236.089 111.499 235.653C112.061 235.217 112.735 234.95 113.444 234.881C114.152 234.812 114.866 234.945 115.501 235.265C116.137 235.585 116.669 236.078 117.035 236.687L132.473 262.366C132.817 262.938 133.002 263.592 133.009 264.259C133.016 264.925 132.845 265.582 132.514 266.162L98.2285 326.04C97.8963 326.615 97.418 327.092 96.8419 327.424C96.2658 327.755 95.6124 327.929 94.9474 327.928Z" fill="#2F2E41"/>
<path d="M130.044 107.961C140.641 107.961 149.232 99.388 149.232 88.8123C149.232 78.2367 140.641 69.6634 130.044 69.6634C119.447 69.6634 110.857 78.2367 110.857 88.8123C110.857 99.388 119.447 107.961 130.044 107.961Z" fill="#FFB8B8"/>
<path d="M157.189 175.875L123.216 166.551L105.147 130.486C104.278 128.753 103.869 126.828 103.956 124.893C104.043 122.957 104.625 121.077 105.645 119.429C106.666 117.781 108.091 116.421 109.786 115.478C111.482 114.534 113.391 114.039 115.332 114.039H142.361C145.167 114.037 147.874 115.071 149.963 116.941C157.213 123.423 172.447 142.111 157.336 175.549L157.189 175.875Z" fill="#EEB876"/>
<path d="M114.66 151.791L97.4467 143.75C96.957 143.522 96.5224 143.19 96.1726 142.779C95.8227 142.367 95.5659 141.885 95.4195 141.366C95.2732 140.846 95.2407 140.301 95.3244 139.768C95.408 139.235 95.6059 138.726 95.9044 138.276L106.365 122.509C107.553 120.015 109.682 118.093 112.287 117.164C114.893 116.235 117.761 116.374 120.263 117.552C122.765 118.73 124.697 120.85 125.636 123.447C126.574 126.045 126.442 128.907 125.269 131.408L119.86 149.467C119.705 149.984 119.44 150.461 119.083 150.867C118.727 151.273 118.287 151.597 117.793 151.817C117.3 152.038 116.764 152.15 116.224 152.145C115.683 152.141 115.149 152.02 114.66 151.791Z" fill="#EEB876"/>
<path d="M135.485 356.01H145.062L149.619 319.142L135.483 319.143L135.485 356.01Z" fill="#FFB8B8"/>
<path d="M163.534 364.884L133.433 364.886L133.432 353.279L151.903 353.278C154.988 353.278 157.946 354.501 160.127 356.678C162.308 358.854 163.533 361.806 163.534 364.884Z" fill="#2F2E41"/>
<path d="M139.101 341.961C138.24 341.962 137.405 341.667 136.736 341.125C136.068 340.584 135.607 339.828 135.431 338.987C132.678 326.042 118.38 259.735 107.221 225.58C95.8662 190.831 115.203 175.003 119.195 172.183C119.62 171.884 119.958 171.477 120.174 171.004L123.074 164.637C123.374 163.98 123.858 163.423 124.467 163.032C125.076 162.642 125.785 162.434 126.509 162.434H126.532C148.272 162.563 155.581 169.403 157.714 172.337C158.029 172.775 158.244 173.275 158.346 173.803C158.448 174.332 158.433 174.876 158.303 175.399L144.547 232.036C144.462 232.387 144.443 232.751 144.49 233.109L158.176 335.945C158.242 336.439 158.208 336.941 158.077 337.423C157.947 337.904 157.721 338.354 157.414 338.748C157.107 339.141 156.724 339.469 156.289 339.714C155.853 339.958 155.373 340.113 154.877 340.17L139.543 341.936C139.396 341.953 139.249 341.961 139.101 341.961Z" fill="#2F2E41"/>
<path d="M109.883 76.7677C114.267 79.7837 119.472 81.3887 124.797 81.3675C122.897 82.682 120.735 83.5698 118.458 83.97C125.538 85.4857 132.856 85.5267 139.953 84.0905C141.53 83.8381 143.052 83.3163 144.452 82.5482C145.15 82.1594 145.758 81.6283 146.236 80.9897C146.715 80.351 147.053 79.619 147.23 78.8412C147.701 76.1526 145.602 73.7099 143.42 72.0636C140.08 69.5816 136.229 67.8715 132.145 67.0572C128.062 66.2428 123.848 66.3445 119.808 67.3548C117.171 68.0352 114.529 69.1849 112.815 71.2988C111.102 73.4127 110.595 76.6717 112.227 78.8485L109.883 76.7677Z" fill="#2F2E41"/>
<path d="M462.092 159.828C467.701 159.828 472.248 155.29 472.248 149.692C472.248 144.095 467.701 139.557 462.092 139.557C456.484 139.557 451.937 144.095 451.937 149.692C451.937 155.29 456.484 159.828 462.092 159.828Z" fill="#EC8E97"/>
<path d="M461.086 153.559C460.857 153.559 460.635 153.486 460.452 153.349L460.441 153.34L458.054 151.517C457.943 151.432 457.85 151.327 457.78 151.206C457.71 151.086 457.664 150.953 457.646 150.815C457.627 150.677 457.636 150.537 457.672 150.402C457.708 150.268 457.77 150.142 457.855 150.031C457.94 149.921 458.046 149.828 458.167 149.759C458.287 149.689 458.421 149.644 458.559 149.626C458.697 149.608 458.838 149.617 458.972 149.653C459.107 149.689 459.233 149.752 459.344 149.837L460.89 151.02L464.543 146.265C464.628 146.155 464.733 146.062 464.854 145.992C464.974 145.923 465.108 145.878 465.246 145.86C465.384 145.841 465.524 145.851 465.658 145.886C465.793 145.922 465.919 145.984 466.03 146.069L466.007 146.1L466.03 146.069C466.253 146.24 466.399 146.493 466.436 146.771C466.473 147.049 466.397 147.33 466.226 147.553L461.929 153.146C461.83 153.275 461.702 153.379 461.556 153.451C461.41 153.522 461.249 153.559 461.086 153.559Z" fill="white"/>
<path d="M462.092 189.454C467.701 189.454 472.248 184.917 472.248 179.319C472.248 173.721 467.701 169.184 462.092 169.184C456.484 169.184 451.937 173.721 451.937 179.319C451.937 184.917 456.484 189.454 462.092 189.454Z" fill="#EC8E97"/>
<path d="M461.086 183.185C460.857 183.186 460.635 183.112 460.452 182.975L460.441 182.967L458.054 181.143C457.943 181.059 457.85 180.953 457.78 180.833C457.71 180.713 457.664 180.58 457.646 180.442C457.627 180.304 457.636 180.164 457.672 180.029C457.708 179.895 457.77 179.768 457.855 179.658C457.94 179.547 458.046 179.455 458.167 179.385C458.287 179.316 458.421 179.27 458.559 179.252C458.697 179.234 458.838 179.244 458.972 179.28C459.107 179.316 459.233 179.378 459.344 179.463L460.89 180.646L464.543 175.891C464.628 175.781 464.733 175.689 464.854 175.619C464.974 175.55 465.108 175.504 465.246 175.486C465.384 175.468 465.524 175.477 465.658 175.513C465.793 175.549 465.919 175.611 466.03 175.696L466.007 175.726L466.03 175.696C466.253 175.867 466.399 176.119 466.436 176.397C466.473 176.675 466.397 176.957 466.226 177.18L461.929 182.772C461.83 182.901 461.702 183.006 461.556 183.077C461.41 183.149 461.249 183.186 461.086 183.185Z" fill="white"/>
<path d="M467.561 223.759C473.17 223.759 477.717 219.221 477.717 213.624C477.717 208.026 473.17 203.488 467.561 203.488C461.952 203.488 457.405 208.026 457.405 213.624C457.405 219.221 461.952 223.759 467.561 223.759Z" fill="#EC8E97"/>
<path d="M466.554 217.49C466.326 217.49 466.103 217.417 465.921 217.28L465.909 217.271L463.523 215.448C463.412 215.363 463.318 215.258 463.248 215.138C463.178 215.017 463.133 214.884 463.114 214.746C463.096 214.608 463.105 214.468 463.141 214.334C463.177 214.199 463.239 214.073 463.324 213.963C463.408 213.852 463.514 213.759 463.635 213.69C463.756 213.62 463.889 213.575 464.027 213.557C464.166 213.539 464.306 213.548 464.441 213.584C464.576 213.62 464.702 213.683 464.812 213.768L466.358 214.951L470.012 210.196C470.096 210.086 470.202 209.993 470.322 209.924C470.443 209.854 470.576 209.809 470.714 209.791C470.852 209.773 470.993 209.782 471.127 209.818C471.262 209.854 471.388 209.916 471.498 210L471.475 210.031L471.499 210.001C471.722 210.172 471.867 210.424 471.904 210.702C471.941 210.98 471.866 211.261 471.695 211.484L467.398 217.077C467.298 217.206 467.171 217.31 467.024 217.382C466.878 217.453 466.717 217.49 466.554 217.49Z" fill="white"/>
<path d="M565.491 298.246C565.386 298.246 565.32 298.243 565.297 298.242L552.688 298.243V296.388H565.342C565.635 296.399 571.613 296.567 577.12 289.898C585.328 279.958 592.068 255.352 577.568 194.575C558.071 112.852 574.332 40.6537 582.228 13.4063C582.617 12.0582 582.687 10.6384 582.432 9.25887C582.176 7.87937 581.603 6.57804 580.757 5.45768C579.911 4.33732 578.816 3.42864 577.557 2.80344C576.299 2.17825 574.912 1.85366 573.506 1.85533H385.206C383.775 1.85725 382.364 2.196 381.088 2.84411C379.812 3.49221 378.707 4.43141 377.863 5.58546C374.518 10.1776 369.928 18.9994 367.055 34.9509L365.226 34.623C368.161 18.325 372.9 9.24356 376.36 4.49472C377.376 3.10414 378.707 1.97244 380.244 1.19147C381.782 0.410504 383.482 0.00229453 385.206 -1.02093e-05H573.506C575.2 -0.00163708 576.871 0.389872 578.388 1.14359C579.904 1.8973 581.224 2.99257 582.243 4.34286C583.262 5.69315 583.953 7.26146 584.26 8.9239C584.568 10.5863 584.483 12.2973 584.014 13.9217C576.159 41.0278 559.982 112.851 579.376 194.145C594.08 255.777 587.011 280.916 578.493 291.153C572.874 297.904 566.683 298.246 565.491 298.246Z" fill="#E6E6E6"/>
<path d="M531.563 332.106C531.458 332.106 531.392 332.103 531.369 332.102L518.76 332.103V330.248H531.414C531.709 330.257 537.685 330.427 543.192 323.757C551.4 313.817 558.14 289.211 543.64 228.434C524.143 146.711 540.404 74.5134 548.3 47.266C548.689 45.9179 548.759 44.4981 548.504 43.1186C548.248 41.7391 547.675 40.4377 546.829 39.3174C545.983 38.197 544.888 37.2884 543.629 36.6632C542.371 36.038 540.984 35.7134 539.579 35.715H351.278C349.847 35.717 348.436 36.0557 347.16 36.7038C345.884 37.3519 344.779 38.2911 343.935 39.4452C340.59 44.0373 336 52.8591 333.128 68.8106L331.298 68.4827C334.233 52.1847 338.972 43.1032 342.432 38.3544C343.448 36.9638 344.779 35.8321 346.317 35.0512C347.854 34.2702 349.554 33.862 351.278 33.8597H539.579C541.273 33.8581 542.944 34.2496 544.46 35.0033C545.976 35.757 547.296 36.8523 548.315 38.2026C549.334 39.5529 550.025 41.1212 550.332 42.7836C550.64 44.4461 550.555 46.157 550.086 47.7814C542.231 74.8875 526.054 146.711 545.449 228.005C560.152 289.637 553.084 314.776 544.565 325.012C538.946 331.764 532.755 332.106 531.563 332.106Z" fill="#CCCCCC"/>
<path d="M511.52 261.868C492.122 180.574 508.301 108.745 516.161 81.6447C516.628 80.0203 516.712 78.3095 516.404 76.6474C516.096 74.9853 515.405 73.4173 514.387 72.0671C513.368 70.7169 512.048 69.6214 510.533 68.8671C509.017 68.1127 507.347 67.7201 505.653 67.7202H317.349C315.625 67.7219 313.925 68.1294 312.389 68.9097C310.852 69.69 309.521 70.8211 308.505 72.211C300.904 82.6427 285.131 117.236 302.748 212.953C312.169 264.16 312.029 299.073 308.951 322.073C307.224 335.023 304.56 344.191 302.146 350.374L301.888 351.029C301.38 352.28 301.115 353.616 301.107 354.966C301.089 356.49 301.396 358.001 302.005 359.399C302.615 360.796 303.515 362.049 304.646 363.074C305.383 363.764 306.217 364.341 307.122 364.79C307.874 365.172 308.668 365.463 309.49 365.655C310.326 365.859 311.183 365.961 312.044 365.959H497.443C497.466 365.959 497.528 365.967 497.638 365.967C498.825 365.967 505.021 365.624 510.637 358.872C519.153 348.635 526.223 323.499 511.52 261.868ZM509.262 357.617C503.755 364.291 497.779 364.119 497.489 364.111H312.044C310.559 364.111 309.097 363.747 307.786 363.053C306.475 362.358 305.353 361.354 304.521 360.127C303.788 359.067 303.296 357.859 303.079 356.59C302.862 355.32 302.925 354.018 303.263 352.775C303.352 352.414 303.467 352.059 303.607 351.715C306.364 344.643 308.408 337.314 309.708 329.838C314.114 305.864 314.934 268.869 304.576 212.618C287.092 117.61 302.552 83.5393 310.005 73.3025C310.85 72.1501 311.956 71.2124 313.231 70.565C314.507 69.9176 315.918 69.5788 317.349 69.5758H505.653C507.058 69.5748 508.444 69.8997 509.701 70.5249C510.959 71.15 512.054 72.0583 512.899 73.1781C513.745 74.2978 514.318 75.5984 514.573 76.9771C514.829 78.3558 514.76 79.7749 514.371 81.1224C506.473 108.371 490.216 180.574 509.715 262.297C524.215 323.071 517.473 347.676 509.262 357.617Z" fill="#3F3D56" fill-opacity="0.7"/>
<path d="M422.063 156.242H325.046C323.074 156.242 321.183 155.46 319.788 154.068C318.393 152.676 317.61 150.789 317.61 148.82C317.61 146.852 318.393 144.965 319.788 143.573C321.183 142.181 323.074 141.399 325.046 141.399H422.063C424.035 141.399 425.926 142.181 427.321 143.573C428.715 144.965 429.499 146.852 429.499 148.82C429.499 150.789 428.715 152.676 427.321 154.068C425.926 155.46 424.035 156.242 422.063 156.242Z" fill="#CCCCCC"/>
<path d="M422.063 188.207H325.046C323.074 188.207 321.183 187.425 319.788 186.034C318.393 184.642 317.61 182.754 317.61 180.786C317.61 178.818 318.393 176.93 319.788 175.538C321.183 174.147 323.074 173.365 325.046 173.365H422.063C424.035 173.365 425.926 174.147 427.321 175.538C428.715 176.93 429.499 178.818 429.499 180.786C429.499 182.754 428.715 184.642 427.321 186.034C425.926 187.425 424.035 188.207 422.063 188.207Z" fill="#CCCCCC"/>
<path d="M429.875 220.952H332.858C330.886 220.952 328.995 220.171 327.6 218.779C326.206 217.387 325.422 215.499 325.422 213.531C325.422 211.563 326.206 209.675 327.6 208.284C328.995 206.892 330.886 206.11 332.858 206.11H429.875C431.847 206.11 433.738 206.892 435.133 208.284C436.527 209.675 437.311 211.563 437.311 213.531C437.311 215.499 436.527 217.387 435.133 218.779C433.738 220.171 431.847 220.952 429.875 220.952Z" fill="#CCCCCC"/>
<path d="M435.343 255.257H338.327C336.355 255.257 334.463 254.475 333.069 253.083C331.674 251.692 330.891 249.804 330.891 247.836C330.891 245.867 331.674 243.98 333.069 242.588C334.463 241.196 336.355 240.414 338.327 240.414H435.343C437.315 240.414 439.207 241.196 440.601 242.588C441.996 243.98 442.779 245.867 442.779 247.836C442.779 249.804 441.996 251.692 440.601 253.083C439.207 254.475 437.315 255.257 435.343 255.257Z" fill="#CCCCCC"/>
<path d="M435.384 98.6181H365.669C364.692 98.6191 363.724 98.4279 362.821 98.0554C361.918 97.6829 361.098 97.1364 360.406 96.4471C359.715 95.7579 359.167 94.9395 358.792 94.0386C358.418 93.1377 358.226 92.172 358.226 91.1968C358.226 90.2216 358.418 89.2559 358.792 88.355C359.167 87.4541 359.715 86.6357 360.406 85.9465C361.098 85.2572 361.918 84.7107 362.821 84.3382C363.724 83.9657 364.692 83.7745 365.669 83.7755H435.384C437.357 83.7755 439.248 84.5574 440.643 85.9491C442.037 87.3409 442.821 89.2285 442.821 91.1968C442.821 93.165 442.037 95.0527 440.643 96.4445C439.248 97.8362 437.357 98.6181 435.384 98.6181Z" fill="#F1AFB5"/>
<path d="M473.811 257.971C479.42 257.971 483.967 253.433 483.967 247.836C483.967 242.238 479.42 237.7 473.811 237.7C468.202 237.7 463.655 242.238 463.655 247.836C463.655 253.433 468.202 257.971 473.811 257.971Z" fill="#CCCCCC"/>
<path d="M440.031 288.782H343.014C341.042 288.782 339.151 288 337.756 286.608C336.361 285.216 335.578 283.329 335.578 281.361C335.578 279.392 336.361 277.505 337.756 276.113C339.151 274.721 341.042 273.939 343.014 273.939H440.031C442.003 273.939 443.894 274.721 445.289 276.113C446.683 277.505 447.467 279.392 447.467 281.361C447.467 283.329 446.683 285.216 445.289 286.608C443.894 288 442.003 288.782 440.031 288.782Z" fill="#CCCCCC"/>
<path d="M478.498 291.496C484.107 291.496 488.654 286.958 488.654 281.361C488.654 275.763 484.107 271.225 478.498 271.225C472.889 271.225 468.342 275.763 468.342 281.361C468.342 286.958 472.889 291.496 478.498 291.496Z" fill="#CCCCCC"/>
</g>
<defs>
<clipPath id="clip0_156_279">
<rect width="663" height="366" fill="white"/>
</clipPath>
</defs>
</svg>
